HIERARCHY
ROOT reference
{
  OFFSET 0 0 0
  CHANNELS 6 Xposition Yposition Zposition Zrotation Xrotation Yrotation
  JOINT Hips
  {
    OFFSET 350.331 86.7696 215.823
    CHANNELS 3 Zrotation Xrotation Yrotation
    JOINT RightUpLeg
    {
      OFFSET -9.29271 -1.56052 -0.0234997
      CHANNELS 3 Zrotation Xrotation Yrotation
      JOINT RightLeg
      {
        OFFSET -0.0199852 -41.8973 0.0465042
        CHANNELS 3 Zrotation Xrotation Yrotation
        JOINT RightFoot
        {
          OFFSET -0.344404 -43.5008 0.46033
          CHANNELS 3 Zrotation Xrotation Yrotation
          End Site
          {
            OFFSET 0 -7.69 17.5
          }
        }
      }
    }
    JOINT LeftUpLeg
    {
      OFFSET 9.27671 -1.61046 0.00923455
      CHANNELS 3 Zrotation Xrotation Yrotation
      JOINT LeftLeg
      {
        OFFSET 0.0572944 -41.8832 0.025786
        CHANNELS 3 Zrotation Xrotation Yrotation
        JOINT LeftFoot
        {
          OFFSET 0.630082 -40.4663 0.064708
          CHANNELS 3 Zrotation Xrotation Yrotation
          End Site
          {
            OFFSET 0 -7.69 17.5
          }
        }
      }
    }
    JOINT Spine
    {
      OFFSET 0.0336257 14.3009 0.0467062
      CHANNELS 3 Zrotation Xrotation Yrotation
      JOINT Spine1
      {
        OFFSET 0.0295985 9.72711 0.0239471
        CHANNELS 3 Zrotation Xrotation Yrotation
        JOINT Spine2
        {
          OFFSET 0.0515174 10.1206 0.00128176
          CHANNELS 3 Zrotation Xrotation Yrotation
          JOINT Spine3
          {
            OFFSET 0.0546141 9.71668 0.0122483
            CHANNELS 3 Zrotation Xrotation Yrotation
            JOINT Neck
            {
              OFFSET 0.0872189 10.3831 0.0511468
              CHANNELS 3 Zrotation Xrotation Yrotation
              JOINT Head
              {
                OFFSET 0.0544 9.47189 0.0313815
                CHANNELS 3 Zrotation Xrotation Yrotation
                End Site
                {
                  OFFSET 0 15.95 0
                }
              }
            }
            JOINT RightShoulder
            {
              OFFSET -3.15364 6.93551 0.0260198
              CHANNELS 3 Zrotation Xrotation Yrotation
              JOINT RightArm
              {
                OFFSET -12.7567 0.0626665 0.0664987
                CHANNELS 3 Zrotation Xrotation Yrotation
                JOINT RightForeArm
                {
                  OFFSET -26.5087 -0.073346 0.274032
                  CHANNELS 3 Zrotation Xrotation Yrotation
                  JOINT RightHand
                  {
                    OFFSET -26.0005 -0.196673 0.105827
                    CHANNELS 3 Zrotation Xrotation Yrotation
                    JOINT RightHandThumb1
                    {
                      OFFSET -2.48905 0.190105 3.12053
                      CHANNELS 3 Zrotation Xrotation Yrotation
                      JOINT RightHandThumb2
                      {
                        OFFSET -3.68274 0 0
                        CHANNELS 3 Zrotation Xrotation Yrotation
                        JOINT RightHandThumb3
                        {
                          OFFSET -2.55832 0 0
                          CHANNELS 3 Zrotation Xrotation Yrotation
                          End Site
                          {
                            OFFSET -2.194 0 0
                          }
                        }
                      }
                    }
                    JOINT RightInHandIndex
                    {
                      OFFSET -3.22368 0.508421 1.97842
                      CHANNELS 3 Zrotation Xrotation Yrotation
                      JOINT RightHandIndex1
                      {
                        OFFSET -5.21684 -0.091368 0.999158
                        CHANNELS 3 Zrotation Xrotation Yrotation
                        JOINT RightHandIndex2
                        {
                          OFFSET -3.61937 0 0
                          CHANNELS 3 Zrotation Xrotation Yrotation
                          JOINT RightHandIndex3
                          {
                            OFFSET -2.0521 0 0
                            CHANNELS 3 Zrotation Xrotation Yrotation
                            End Site
                            {
                              OFFSET -1.805 0 0
                            }
                          }
                        }
                      }
                    }
                    JOINT RightInHandMiddle
                    {
                      OFFSET -3.38211 0.517263 0.756737
                      CHANNELS 3 Zrotation Xrotation Yrotation
                      JOINT RightHandMiddle1
                      {
                        OFFSET -5.17411 -0.084 0.313895
                        CHANNELS 3 Zrotation Xrotation Yrotation
                        JOINT RightHandMiddle2
                        {
                          OFFSET -3.94947 0 0
                          CHANNELS 3 Zrotation Xrotation Yrotation
                          JOINT RightHandMiddle3
                          {
                            OFFSET -2.47579 0 0
                            CHANNELS 3 Zrotation Xrotation Yrotation
                            End Site
                            {
                              OFFSET -1.975 0 0
                            }
                          }
                        }
                      }
                    }
                    JOINT RightInHandRing
                    {
                      OFFSET -3.36516 0.537895 -0.128947
                      CHANNELS 3 Zrotation Xrotation Yrotation
                      JOINT RightHandRing1
                      {
                        OFFSET -4.63474 -0.022105 -0.478947
                        CHANNELS 3 Zrotation Xrotation Yrotation
                        JOINT RightHandRing2
                        {
                          OFFSET -3.44238 0 0
                          CHANNELS 3 Zrotation Xrotation Yrotation
                          JOINT RightHandRing3
                          {
                            OFFSET -2.3881 0 0
                            CHANNELS 3 Zrotation Xrotation Yrotation
                            End Site
                            {
                              OFFSET -1.857 0 0
                            }
                          }
                        }
                      }
                    }
                    JOINT RightInHandPinky
                    {
                      OFFSET -3.16105 0.469368 -1.20179
                      CHANNELS 3 Zrotation Xrotation Yrotation
                      JOINT RightHandPinky1
                      {
                        OFFSET -4.14105 -0.022105 -1.09053
                        CHANNELS 3 Zrotation Xrotation Yrotation
                        JOINT RightHandPinky2
                        {
                          OFFSET -2.75653 0 0
                          CHANNELS 3 Zrotation Xrotation Yrotation
                          JOINT RightHandPinky3
                          {
                            OFFSET -1.74189 0 0
                            CHANNELS 3 Zrotation Xrotation Yrotation
                            End Site
                            {
                              OFFSET -1.645 0 0
                            }
                          }
                        }
                      }
                    }
                  }
                }
              }
            }
            JOINT LeftShoulder
            {
              OFFSET 3.27252 6.91581 -0.0198585
              CHANNELS 3 Zrotation Xrotation Yrotation
              JOINT LeftArm
              {
                OFFSET 12.8319 -0.0466028 -0.0574599
                CHANNELS 3 Zrotation Xrotation Yrotation
                JOINT LeftForeArm
                {
                  OFFSET 26.4942 -0.039105 -0.0936
                  CHANNELS 3 Zrotation Xrotation Yrotation
                  JOINT LeftHand
                  {
                    OFFSET 26.0008 0.022674 -0.016655
                    CHANNELS 3 Zrotation Xrotation Yrotation
                    JOINT LeftHandThumb1
                    {
                      OFFSET 2.48905 0.190105 3.12053
                      CHANNELS 3 Zrotation Xrotation Yrotation
                      JOINT LeftHandThumb2
                      {
                        OFFSET 3.68274 0 0
                        CHANNELS 3 Zrotation Xrotation Yrotation
                        JOINT LeftHandThumb3
                        {
                          OFFSET 2.55832 0 0
                          CHANNELS 3 Zrotation Xrotation Yrotation
                          End Site
                          {
                            OFFSET 2.194 0 0
                          }
                        }
                      }
                    }
                    JOINT LeftInHandIndex
                    {
                      OFFSET 3.22368 0.508421 1.97842
                      CHANNELS 3 Zrotation Xrotation Yrotation
                      JOINT LeftHandIndex1
                      {
                        OFFSET 5.21684 -0.091368 0.999158
                        CHANNELS 3 Zrotation Xrotation Yrotation
                        JOINT LeftHandIndex2
                        {
                          OFFSET 3.61937 0 0
                          CHANNELS 3 Zrotation Xrotation Yrotation
                          JOINT LeftHandIndex3
                          {
                            OFFSET 2.0521 0 0
                            CHANNELS 3 Zrotation Xrotation Yrotation
                            End Site
                            {
                              OFFSET 1.805 0 0
                            }
                          }
                        }
                      }
                    }
                    JOINT LeftInHandMiddle
                    {
                      OFFSET 3.38211 0.517263 0.756737
                      CHANNELS 3 Zrotation Xrotation Yrotation
                      JOINT LeftHandMiddle1
                      {
                        OFFSET 5.17411 -0.084 0.313895
                        CHANNELS 3 Zrotation Xrotation Yrotation
                        JOINT LeftHandMiddle2
                        {
                          OFFSET 3.94947 0 0
                          CHANNELS 3 Zrotation Xrotation Yrotation
                          JOINT LeftHandMiddle3
                          {
                            OFFSET 2.47579 0 0
                            CHANNELS 3 Zrotation Xrotation Yrotation
                            End Site
                            {
                              OFFSET 1.975 0 0
                            }
                          }
                        }
                      }
                    }
                    JOINT LeftInHandRing
                    {
                      OFFSET 3.36516 0.537895 -0.128947
                      CHANNELS 3 Zrotation Xrotation Yrotation
                      JOINT LeftHandRing1
                      {
                        OFFSET 4.63474 -0.022105 -0.478947
                        CHANNELS 3 Zrotation Xrotation Yrotation
                        JOINT LeftHandRing2
                        {
                          OFFSET 3.44238 0 0
                          CHANNELS 3 Zrotation Xrotation Yrotation
                          JOINT LeftHandRing3
                          {
                            OFFSET 2.3881 0 0
                            CHANNELS 3 Zrotation Xrotation Yrotation
                            End Site
                            {
                              OFFSET 1.857 0 0
                            }
                          }
                        }
                      }
                    }
                    JOINT LeftInHandPinky
                    {
                      OFFSET 3.16105 0.469368 -1.20179
                      CHANNELS 3 Zrotation Xrotation Yrotation
                      JOINT LeftHandPinky1
                      {
                        OFFSET 4.14105 -0.022105 -1.09053
                        CHANNELS 3 Zrotation Xrotation Yrotation
                        JOINT LeftHandPinky2
                        {
                          OFFSET 2.75653 0 0
                          CHANNELS 3 Zrotation Xrotation Yrotation
                          JOINT LeftHandPinky3
                          {
                            OFFSET 1.74189 0 0
                            CHANNELS 3 Zrotation Xrotation Yrotation
                            End Site
                            {
                              OFFSET 1.645 0 0
                            }
                          }
                        }
                      }
                    }
                  }
                }
              }
            }
          }
        }
      }
    }
  }
}
MOTION
Frames: 2
Frame Time: 0.00833333
1.500000000000000000e+02 0.000000000000000000e+00 0.000000000000000000e+00 0.000000000000000000e+00 0.000000000000000000e+00 -0.000000000000000000e+00 -1.372507675782817099e-02 -1.496470446693605807e-02 3.348432431938621473e-02 -5.600637706861494314e-02 -5.454272021937278843e-03 2.150885095864655139e-03 1.560759594512159442e-05 1.261585948022386598e-02 5.120083697562415048e-03 2.461568998826908078e-02 -3.660376763967837510e-02 -4.422863526685519991e-02 -1.132171172773254082e-02 1.533384701237883868e-02 -1.892803306205475405e-02 -1.421328259988767842e-02 -2.075032168377700242e-02 -1.270104081581121397e-02 2.218808243833763835e-02 9.960157817175106093e-03 -3.368509410695135018e-03 -3.167879439024945398e-02 -8.107005185252669568e-03 -5.822809687034356807e-02 -7.500494576589843490e-03 -4.436367205879182714e-03 -1.365387567148732342e-02 -1.218415930690445667e-02 -6.616306986955806761e-03 -2.187242593240543154e-02 3.610098924680084191e-03 3.930804811910984173e-03 1.420070837237141434e-03 1.180136568044773578e-03 3.945648927284652052e-02 -1.608125478486988613e-01 2.696561697625804790e-02 -2.179301964425080229e-02 8.436754995914416688e-02 3.267684978802364720e-02 5.511046166886037628e-02 9.497187740108961607e-02 2.185282588274732596e-02 -2.924010529020418248e-02 7.357525460486726010e-02 2.784067214462695450e-01 1.212578412791143756e-01 -8.074670584341113455e-02 -3.281629162979627506e-02 2.972899190241334866e-02 -9.666657373294015865e-02 0.000000000000000000e+00 0.000000000000000000e+00 0.000000000000000000e+00 1.009361342326956312e-15 -1.885204049635306060e-15 0.000000000000000000e+00 -3.516871593965717368e-15 -1.463350272821825228e-15 0.000000000000000000e+00 -1.119285226007468622e-15 3.747500979967731325e-16 9.601092481513185176e-17 0.000000000000000000e+00 0.000000000000000000e+00 0.000000000000000000e+00 0.000000000000000000e+00 -4.752729451826554101e-16 -5.689339481544455511e-16 0.000000000000000000e+00 1.058603267795159543e-16 8.129629970436946046e-16 -1.119285226007468622e-15 3.747500979967731325e-16 9.601092481513185176e-17 0.000000000000000000e+00 -1.155943265475599909e-16 2.350128272475116867e-16 0.000000000000000000e+00 5.622274842169895841e-17 1.360006619615107864e-15 0.000000000000000000e+00 -4.983305924789324299e-16 -3.349405411960990834e-16 -1.119285226007468622e-15 3.747500979967731325e-16 9.601092481513185176e-17 0.000000000000000000e+00 0.000000000000000000e+00 0.000000000000000000e+00 0.000000000000000000e+00 7.108766469677894077e-17 9.361467559197982363e-16 0.000000000000000000e+00 5.466202455305389610e-17 -2.989655970487896651e-16 -1.119285226007468622e-15 3.747500979967731325e-16 9.601092481513185176e-17 0.000000000000000000e+00 0.000000000000000000e+00 0.000000000000000000e+00 0.000000000000000000e+00 1.483242861494413904e-16 -9.045735058873598373e-16 0.000000000000000000e+00 -1.571544314450467123e-16 1.167468510968911937e-16 6.523027387915483755e-02 9.548817914718496502e-02 4.671171777552898807e-02 2.837367994111580222e-02 -4.500904175854004985e-02 5.482055430261797285e-02 -7.185757373770695032e-03 3.926170122445250647e-03 2.500503563722515366e-01 -8.106168163072108301e-02 1.936597929846879396e-01 -2.898565508490472120e-01 0.000000000000000000e+00 0.000000000000000000e+00 0.000000000000000000e+00 -4.022336459254973379e-15 -4.077712819189442447e-17 0.000000000000000000e+00 -8.125611191486112475e-16 -1.248812221172654671e-16 0.000000000000000000e+00 2.153865371811143794e-17 -1.877813605151157365e-17 4.685950374607154843e-16 0.000000000000000000e+00 0.000000000000000000e+00 0.000000000000000000e+00 0.000000000000000000e+00 -3.183334537253265185e-15 1.010709891965993261e-15 0.000000000000000000e+00 9.453979658527719610e-16 1.313364825081685192e-15 2.153865371811143794e-17 -1.877813605151157365e-17 4.685950374607154843e-16 0.000000000000000000e+00 -3.652880847675247770e-16 4.853172960493896733e-16 0.000000000000000000e+00 -8.934627396806516415e-18 3.829733258126774855e-16 0.000000000000000000e+00 1.286427864141806574e-15 8.284282954971117877e-16 2.153865371811143794e-17 -1.877813605151157365e-17 4.685950374607154843e-16 0.000000000000000000e+00 0.000000000000000000e+00 0.000000000000000000e+00 0.000000000000000000e+00 -1.550243262571538962e-16 -7.344387712890803497e-16 0.000000000000000000e+00 -8.269883328406802890e-16 1.352021217910053158e-16 2.153865371811143794e-17 -1.877813605151157365e-17 4.685950374607154843e-16 0.000000000000000000e+00 0.000000000000000000e+00 0.000000000000000000e+00 0.000000000000000000e+00 1.599359462661362181e-17 1.070752246687953964e-15 0.000000000000000000e+00 7.010780769763535355e-16 -4.815966566547464722e-16
1.500000000000000000e+02 0.000000000000000000e+00 0.000000000000000000e+00 0.000000000000000000e+00 0.000000000000000000e+00 -0.000000000000000000e+00 -1.579330865993913355e-02 -6.677216381593930640e-03 3.815884639544733087e-02 -6.595690160196493457e-02 -2.468726797220936048e-03 -1.823296708921627943e-02 1.815344955891297091e-03 1.699572447166018338e-02 1.482097829033802126e-02 2.834604125834350868e-02 -4.533521349287943092e-02 -4.730568805740779925e-02 -7.220010379112737527e-03 3.245958026574037592e-02 -2.584511203774936955e-02 -2.149515777827121221e-02 -3.948552354067284831e-02 -1.902380690287397078e-02 -5.634027495105271670e-03 -1.079750105300799831e-02 4.940328280112433156e-03 -1.523235564784183177e-02 -6.555367479369015281e-03 1.381145171625843340e-02 -2.752371000842449792e-03 1.747430182798591705e-03 4.871951045471794531e-04 -6.056289930164335603e-03 -3.435696262587823249e-03 6.835077848011099008e-03 1.387740957899417276e-03 9.517738677734924367e-04 1.864147640337253083e-03 4.875335143091194447e-04 8.269884020849809642e-03 -4.189285722493552022e-02 3.420394053095116189e-03 2.394758422783852501e-03 2.758743776311250659e-02 1.046535328385730067e-02 5.946410107319301946e-02 -2.002146496238817533e-02 8.932732402156819129e-02 -7.123133701030889831e-03 1.351799987113201651e-01 2.758312546360684459e-01 1.218441820147600912e-01 -1.012436439098219343e-01 -1.912857123894592393e-01 -1.992271407370805603e-01 -1.176072837281097044e-01 0.000000000000000000e+00 0.000000000000000000e+00 0.000000000000000000e+00 -1.434188107443464198e-15 -1.407471601954584458e-16 0.000000000000000000e+00 -4.450276236111558751e-15 1.486075126559460589e-16 0.000000000000000000e+00 -8.740112340654528457e-15 -1.234973029637220496e-16 -1.030220220077773959e-15 0.000000000000000000e+00 0.000000000000000000e+00 0.000000000000000000e+00 0.000000000000000000e+00 -2.222377610663290490e-15 4.780554345663162778e-16 0.000000000000000000e+00 2.190219147408607778e-15 -3.054596356032398184e-16 -8.740112340654528457e-15 -1.234973029637220496e-16 -1.030220220077773959e-15 0.000000000000000000e+00 -1.745392799541953671e-15 4.161258018265787570e-15 0.000000000000000000e+00 -3.090832631925812301e-15 -3.540133559800286795e-15 0.000000000000000000e+00 3.090884854687143444e-15 1.391495807519164188e-15 -8.740112340654528457e-15 -1.234973029637220496e-16 -1.030220220077773959e-15 0.000000000000000000e+00 0.000000000000000000e+00 0.000000000000000000e+00 0.000000000000000000e+00 -8.862405717465357526e-16 -2.945980673008127077e-15 0.000000000000000000e+00 2.789489637913045755e-16 -7.981068968372939204e-15 -8.740112340654528457e-15 -1.234973029637220496e-16 -1.030220220077773959e-15 0.000000000000000000e+00 0.000000000000000000e+00 0.000000000000000000e+00 0.000000000000000000e+00 6.730242768470057499e-17 -4.041346005382743494e-15 0.000000000000000000e+00 6.794947295909804125e-16 5.398285111479027123e-15 5.291398407210240462e-02 2.933198723895303825e-02 1.644251651379494833e-02 -4.881917327478393215e-02 7.214730421526097809e-03 1.163573165088290645e-02 6.921180587352995968e-03 1.852084651510995175e-02 1.160599110345457430e-01 -7.880238861131109995e-02 2.062619298416457359e-01 -2.733735478295750698e-01 0.000000000000000000e+00 0.000000000000000000e+00 0.000000000000000000e+00 5.152669123082682570e-15 7.217987053901358257e-15 0.000000000000000000e+00 5.698402414567985869e-15 1.598450831743728929e-15 0.000000000000000000e+00 7.224625362070472595e-16 -1.992201454807081545e-16 -1.850204797026124444e-15 0.000000000000000000e+00 0.000000000000000000e+00 0.000000000000000000e+00 0.000000000000000000e+00 -2.867816474051095359e-15 -5.428986964327304822e-15 0.000000000000000000e+00 -1.670787186764656939e-16 -1.326965505364886986e-15 7.224625362070472595e-16 -1.992201454807081545e-16 -1.850204797026124444e-15 0.000000000000000000e+00 1.160838453800894375e-15 -3.788104780973134169e-15 0.000000000000000000e+00 -3.255844103438804943e-15 -1.102450178021396594e-15 0.000000000000000000e+00 -2.513528081279908865e-16 2.396363504799300092e-16 7.224625362070472595e-16 -1.992201454807081545e-16 -1.850204797026124444e-15 0.000000000000000000e+00 0.000000000000000000e+00 0.000000000000000000e+00 0.000000000000000000e+00 4.559592254118342222e-15 -4.930091158830963158e-16 0.000000000000000000e+00 2.293535427129433601e-15 -7.332299373392025336e-16 7.224625362070472595e-16 -1.992201454807081545e-16 -1.850204797026124444e-15 0.000000000000000000e+00 0.000000000000000000e+00 0.000000000000000000e+00 0.000000000000000000e+00 -4.440683375762757392e-16 -2.631563259889089227e-16 0.000000000000000000e+00 -1.139541660336609188e-15 -1.449447909807086725e-15
